<?xml version="1.0" standalone="no"?>
<!DOCTYPE svg PUBLIC "-//W3C//DTD SVG 20010904//EN"
 "http://www.w3.org/TR/2001/REC-SVG-20010904/DTD/svg10.dtd">
<svg version="1.0" xmlns="http://www.w3.org/2000/svg"
 width="1189.000000pt" height="1280.000000pt" viewBox="0 0 1189.000000 1280.000000"
 preserveAspectRatio="xMidYMid meet">

<g transform="translate(0.000000,1280.000000) scale(0.100000,-0.100000)"
fill="#000000" stroke="none">
<path d="M6377 12725 c-4 -27 -39 -356 -78 -730 -38 -374 -92 -894 -119 -1155
-28 -261 -69 -661 -92 -889 -24 -237 -47 -415 -53 -417 -9 -3 -957 -121 -4903
-613 -612 -76 -1116 -141 -1119 -145 -3 -3 -4 -8 -2 -10 6 -6 655 -15 1879
-26 575 -6 1439 -15 1920 -20 481 -5 1192 -13 1580 -16 l705 -7 140 372 c108
290 141 368 146 350 4 -13 225 -1551 491 -3417 265 -1866 486 -3385 490 -3375
3 10 18 124 32 253 14 129 64 573 111 985 46 413 98 869 114 1015 59 521 403
3556 466 4115 148 1303 215 1899 215 1910 0 14 175 1 285 -21 467 -94 814
-376 953 -775 67 -191 91 -378 72 -560 -29 -274 -133 -547 -316 -831 -35 -54
-60 -98 -56 -98 17 0 246 206 351 316 245 257 414 524 546 864 171 439 202
700 114 960 -81 237 -287 450 -572 589 -171 83 -421 159 -687 210 -373 70
-740 62 -1127 -25 -122 -27 -185 -46 -483 -145 -102 -33 -190 -62 -197 -64 -7
-3 34 -101 109 -260 l121 -257 -37 -681 c-20 -375 -61 -1143 -91 -1707 -83
-1543 -93 -1721 -96 -1725 -2 -2 -134 985 -293 2193 -555 4224 -511 3897 -519
3837z"/>
<path d="M9645 8540 c-60 -4 -130 -8 -155 -10 -41 -2 -38 -3 35 -16 198 -35
387 -96 561 -179 569 -271 825 -750 719 -1348 -22 -121 -79 -340 -117 -445
-65 -179 -211 -437 -395 -696 -181 -255 -303 -390 -693 -769 -300 -291 -503
-505 -801 -842 -253 -287 -396 -438 -574 -605 -99 -93 -83 -82 150 105 928
745 1890 1564 2329 1984 699 667 1092 1239 1170 1700 22 133 21 332 -4 450
-47 231 -186 407 -396 502 -132 60 -424 121 -739 155 -168 18 -897 27 -1090
14z"/>
<path d="M9380 8110 c0 -29 -9 -383 -20 -788 -11 -406 -29 -1063 -40 -1461
-11 -399 -18 -726 -17 -728 3 -2 327 268 467 390 l34 30 116 1037 115 1037
-235 191 c-129 105 -277 225 -327 267 l-93 76 0 -51z"/>
<path d="M9476 4328 l-205 -173 0 -95 c-1 -52 -10 -423 -21 -825 -11 -401 -29
-1074 -40 -1495 -11 -421 -27 -983 -34 -1250 -7 -267 -12 -487 -9 -489 2 -3 7
0 12 5 4 5 115 970 246 2144 263 2361 262 2350 259 2350 -2 0 -95 -78 -208
-172z"/>
</g>
</svg>
